<svg xmlns="http://www.w3.org/2000/svg" xmlns:xlink="http://www.w3.org/1999/xlink" width="151" zoomAndPan="magnify" viewBox="0 0 113.25 33.749998" height="45" preserveAspectRatio="xMidYMid meet" version="1.0"><defs><g/></defs><g fill="rgb(0%, 0%, 0%)" fill-opacity="1"><g transform="translate(0.123998, 19.788736)"><g><path d="M 17.0625 0 L 17.015625 -9.015625 L 12.640625 -1.671875 L 10.5 -1.671875 L 6.15625 -8.78125 L 6.15625 0 L 1.703125 0 L 1.703125 -17.015625 L 5.671875 -17.015625 L 11.640625 -7.203125 L 17.484375 -17.015625 L 21.4375 -17.015625 L 21.5 0 Z M 17.0625 0 "/></g></g></g><g fill="rgb(0%, 0%, 0%)" fill-opacity="1"><g transform="translate(23.323285, 19.788736)"><g><path d="M 13.109375 -3.3125 L 5.90625 -3.3125 L 4.578125 0 L -0.34375 0 L 7.171875 -17.015625 L 11.90625 -17.015625 L 19.453125 0 L 14.4375 0 Z M 11.6875 -6.859375 L 9.5 -12.296875 L 7.3125 -6.859375 Z M 11.6875 -6.859375 "/></g></g></g><g fill="rgb(0%, 0%, 0%)" fill-opacity="1"><g transform="translate(42.437161, 19.788736)"><g><path d="M 12.453125 0 L 8.921875 -5.28125 L 5.453125 0 L -0.046875 0 L 6.15625 -8.609375 L 0.21875 -17.015625 L 5.640625 -17.015625 L 9.046875 -12.109375 L 12.40625 -17.015625 L 17.609375 -17.015625 L 11.671875 -8.796875 L 17.984375 0 Z M 12.453125 0 "/></g></g></g><g fill="rgb(0%, 0%, 0%)" fill-opacity="1"><g transform="translate(60.359459, 19.788736)"><g><path d="M 1.703125 -17.015625 L 6.515625 -17.015625 L 6.515625 0 L 1.703125 0 Z M 1.703125 -17.015625 "/></g></g></g><g fill="rgb(0%, 0%, 0%)" fill-opacity="1"><g transform="translate(68.603233, 19.788736)"><g><path d="M 17.0625 0 L 17.015625 -9.015625 L 12.640625 -1.671875 L 10.5 -1.671875 L 6.15625 -8.78125 L 6.15625 0 L 1.703125 0 L 1.703125 -17.015625 L 5.671875 -17.015625 L 11.640625 -7.203125 L 17.484375 -17.015625 L 21.4375 -17.015625 L 21.5 0 Z M 17.0625 0 "/></g></g></g><g fill="rgb(0%, 0%, 0%)" fill-opacity="1"><g transform="translate(91.80252, 19.788736)"><g><path d="M 10.28125 0.34375 C 8.476562 0.34375 6.859375 -0.0351562 5.421875 -0.796875 C 3.992188 -1.554688 2.867188 -2.609375 2.046875 -3.953125 C 1.234375 -5.304688 0.828125 -6.828125 0.828125 -8.515625 C 0.828125 -10.191406 1.234375 -11.703125 2.046875 -13.046875 C 2.867188 -14.398438 3.992188 -15.457031 5.421875 -16.21875 C 6.859375 -16.976562 8.476562 -17.359375 10.28125 -17.359375 C 12.082031 -17.359375 13.695312 -16.976562 15.125 -16.21875 C 16.5625 -15.457031 17.6875 -14.398438 18.5 -13.046875 C 19.320312 -11.703125 19.734375 -10.191406 19.734375 -8.515625 C 19.734375 -6.828125 19.320312 -5.304688 18.5 -3.953125 C 17.6875 -2.609375 16.5625 -1.554688 15.125 -0.796875 C 13.695312 -0.0351562 12.082031 0.34375 10.28125 0.34375 Z M 10.28125 -3.640625 C 11.144531 -3.640625 11.921875 -3.84375 12.609375 -4.25 C 13.304688 -4.65625 13.859375 -5.226562 14.265625 -5.96875 C 14.671875 -6.707031 14.875 -7.554688 14.875 -8.515625 C 14.875 -9.460938 14.671875 -10.304688 14.265625 -11.046875 C 13.859375 -11.785156 13.304688 -12.359375 12.609375 -12.765625 C 11.921875 -13.171875 11.144531 -13.375 10.28125 -13.375 C 9.425781 -13.375 8.648438 -13.171875 7.953125 -12.765625 C 7.253906 -12.359375 6.703125 -11.785156 6.296875 -11.046875 C 5.890625 -10.304688 5.6875 -9.460938 5.6875 -8.515625 C 5.6875 -7.554688 5.890625 -6.707031 6.296875 -5.96875 C 6.703125 -5.226562 7.253906 -4.65625 7.953125 -4.25 C 8.648438 -3.84375 9.425781 -3.640625 10.28125 -3.640625 Z M 10.28125 -3.640625 "/></g></g></g><g fill="rgb(0%, 0%, 0%)" fill-opacity="1"><g transform="translate(24.727021, 28.888036)"><g><path d="M 4.171875 0 L 3.484375 0 L 1.25 -3 L 1.25 0 L 0.546875 0 L 0.546875 -4.171875 L 1.234375 -4.171875 L 3.484375 -1.171875 L 3.484375 -4.171875 L 4.171875 -4.171875 Z M 4.171875 0 "/></g></g></g><g fill="rgb(0%, 0%, 0%)" fill-opacity="1"><g transform="translate(29.762639, 28.888036)"><g><path d="M 3.34375 -3.546875 L 1.25 -3.546875 L 1.25 -2.34375 L 3.15625 -2.34375 L 3.15625 -1.71875 L 1.25 -1.71875 L 1.25 0 L 0.546875 0 L 0.546875 -4.171875 L 3.359375 -4.171875 Z M 3.34375 -3.546875 "/></g></g></g><g fill="rgb(0%, 0%, 0%)" fill-opacity="1"><g transform="translate(33.502053, 28.888036)"><g><path d="M 3.40625 -3.546875 L 2.078125 -3.546875 L 2.078125 0 L 1.375 0 L 1.375 -3.546875 L 0.046875 -3.546875 L 0.046875 -4.171875 L 3.40625 -4.171875 Z M 3.40625 -3.546875 "/></g></g></g><g fill="rgb(0%, 0%, 0%)" fill-opacity="1"><g transform="translate(37.265362, 28.888036)"><g/></g></g><g fill="rgb(0%, 0%, 0%)" fill-opacity="1"><g transform="translate(39.111245, 28.888036)"><g><path d="M 4.96875 0 L 4.3125 0 L 4.3125 -3.125 L 2.984375 -0.4375 L 2.53125 -0.4375 L 1.21875 -3.125 L 1.21875 0 L 0.546875 0 L 0.546875 -4.171875 L 1.390625 -4.171875 L 2.765625 -1.40625 L 4.140625 -4.171875 L 4.96875 -4.171875 Z M 4.96875 0 "/></g></g></g><g fill="rgb(0%, 0%, 0%)" fill-opacity="1"><g transform="translate(44.941315, 28.888036)"><g><path d="M 3.25 -0.9375 L 1.140625 -0.9375 L 0.734375 0 L 0 0 L 1.84375 -4.171875 L 2.578125 -4.171875 L 4.40625 0 L 3.640625 0 Z M 2.984375 -1.5625 L 2.1875 -3.421875 L 1.40625 -1.5625 Z M 2.984375 -1.5625 "/></g></g></g><g fill="rgb(0%, 0%, 0%)" fill-opacity="1"><g transform="translate(49.65438, 28.888036)"><g><path d="M 3.203125 0 L 2.4375 -1.265625 C 2.394531 -1.265625 2.332031 -1.265625 2.25 -1.265625 L 1.25 -1.265625 L 1.25 0 L 0.546875 0 L 0.546875 -4.171875 L 2.25 -4.171875 C 2.78125 -4.171875 3.191406 -4.046875 3.484375 -3.796875 C 3.773438 -3.554688 3.921875 -3.207031 3.921875 -2.75 C 3.921875 -2.414062 3.847656 -2.132812 3.703125 -1.90625 C 3.554688 -1.675781 3.34375 -1.503906 3.0625 -1.390625 L 4 0 Z M 1.25 -1.890625 L 2.25 -1.890625 C 2.925781 -1.890625 3.265625 -2.171875 3.265625 -2.734375 C 3.265625 -3.273438 2.925781 -3.546875 2.25 -3.546875 L 1.25 -3.546875 Z M 1.25 -1.890625 "/></g></g></g><g fill="rgb(0%, 0%, 0%)" fill-opacity="1"><g transform="translate(54.277842, 28.888036)"><g><path d="M 3.34375 0 L 1.96875 -1.84375 L 1.25 -1.0625 L 1.25 0 L 0.546875 0 L 0.546875 -4.171875 L 1.25 -4.171875 L 1.25 -2.015625 L 3.25 -4.171875 L 4.078125 -4.171875 L 2.453125 -2.390625 L 4.1875 0 Z M 3.34375 0 "/></g></g></g><g fill="rgb(0%, 0%, 0%)" fill-opacity="1"><g transform="translate(58.87144, 28.888036)"><g><path d="M 3.53125 -3.546875 L 1.25 -3.546875 L 1.25 -2.421875 L 3.296875 -2.421875 L 3.296875 -1.78125 L 1.25 -1.78125 L 1.25 -0.625 L 3.609375 -0.625 L 3.609375 0 L 0.546875 0 L 0.546875 -4.171875 L 3.53125 -4.171875 Z M 3.53125 -3.546875 "/></g></g></g><g fill="rgb(0%, 0%, 0%)" fill-opacity="1"><g transform="translate(63.094692, 28.888036)"><g><path d="M 3.40625 -3.546875 L 2.078125 -3.546875 L 2.078125 0 L 1.375 0 L 1.375 -3.546875 L 0.046875 -3.546875 L 0.046875 -4.171875 L 3.40625 -4.171875 Z M 3.40625 -3.546875 "/></g></g></g><g fill="rgb(0%, 0%, 0%)" fill-opacity="1"><g transform="translate(66.858002, 28.888036)"><g><path d="M 0.546875 -4.171875 L 2.21875 -4.171875 C 2.738281 -4.171875 3.144531 -4.046875 3.4375 -3.796875 C 3.726562 -3.554688 3.875 -3.207031 3.875 -2.75 C 3.875 -2.28125 3.726562 -1.914062 3.4375 -1.65625 C 3.144531 -1.394531 2.738281 -1.265625 2.21875 -1.265625 L 1.25 -1.265625 L 1.25 0 L 0.546875 0 Z M 1.25 -3.546875 L 1.25 -1.890625 L 2.1875 -1.890625 C 2.851562 -1.890625 3.1875 -2.171875 3.1875 -2.734375 C 3.1875 -3.273438 2.851562 -3.546875 2.1875 -3.546875 Z M 1.25 -3.546875 "/></g></g></g><g fill="rgb(0%, 0%, 0%)" fill-opacity="1"><g transform="translate(71.182801, 28.888036)"><g><path d="M 1.25 -0.640625 L 3.0625 -0.640625 L 3.0625 0 L 0.546875 0 L 0.546875 -4.171875 L 1.25 -4.171875 Z M 1.25 -0.640625 "/></g></g></g><g fill="rgb(0%, 0%, 0%)" fill-opacity="1"><g transform="translate(74.677309, 28.888036)"><g><path d="M 3.25 -0.9375 L 1.140625 -0.9375 L 0.734375 0 L 0 0 L 1.84375 -4.171875 L 2.578125 -4.171875 L 4.40625 0 L 3.640625 0 Z M 2.984375 -1.5625 L 2.1875 -3.421875 L 1.40625 -1.5625 Z M 2.984375 -1.5625 "/></g></g></g><g fill="rgb(0%, 0%, 0%)" fill-opacity="1"><g transform="translate(79.390373, 28.888036)"><g><path d="M 2.40625 -4.203125 C 2.695312 -4.203125 2.984375 -4.144531 3.265625 -4.03125 C 3.546875 -3.914062 3.785156 -3.753906 3.984375 -3.546875 L 3.578125 -3.03125 C 3.421875 -3.195312 3.238281 -3.328125 3.03125 -3.421875 C 2.832031 -3.515625 2.625 -3.5625 2.40625 -3.5625 C 1.988281 -3.5625 1.632812 -3.421875 1.34375 -3.140625 C 1.0625 -2.859375 0.921875 -2.507812 0.921875 -2.09375 C 0.921875 -1.6875 1.0625 -1.335938 1.34375 -1.046875 C 1.632812 -0.765625 1.988281 -0.625 2.40625 -0.625 C 2.84375 -0.625 3.234375 -0.789062 3.578125 -1.125 L 4 -0.65625 C 3.78125 -0.445312 3.523438 -0.28125 3.234375 -0.15625 C 2.953125 -0.03125 2.664062 0.03125 2.375 0.03125 C 1.757812 0.03125 1.242188 -0.171875 0.828125 -0.578125 C 0.410156 -0.984375 0.203125 -1.488281 0.203125 -2.09375 C 0.203125 -2.6875 0.410156 -3.1875 0.828125 -3.59375 C 1.253906 -4 1.78125 -4.203125 2.40625 -4.203125 Z M 2.40625 -4.203125 "/></g></g></g><g fill="rgb(0%, 0%, 0%)" fill-opacity="1"><g transform="translate(83.858534, 28.888036)"><g><path d="M 3.53125 -3.546875 L 1.25 -3.546875 L 1.25 -2.421875 L 3.296875 -2.421875 L 3.296875 -1.78125 L 1.25 -1.78125 L 1.25 -0.625 L 3.609375 -0.625 L 3.609375 0 L 0.546875 0 L 0.546875 -4.171875 L 3.53125 -4.171875 Z M 3.53125 -3.546875 "/></g></g></g></svg>