<svg xmlns="http://www.w3.org/2000/svg" xmlns:xlink="http://www.w3.org/1999/xlink" width="151" zoomAndPan="magnify" viewBox="0 0 113.25 33.749998" height="45" preserveAspectRatio="xMidYMid meet" version="1.0"><defs><g/></defs><g fill="#ffffff" fill-opacity="1"><g transform="translate(0.705627, 20.061708)"><g><path d="M 10.609375 0.359375 C 8.753906 0.359375 7.085938 -0.03125 5.609375 -0.8125 C 4.128906 -1.601562 2.96875 -2.695312 2.125 -4.09375 C 1.28125 -5.5 0.859375 -7.085938 0.859375 -8.859375 C 0.859375 -10.628906 1.28125 -12.210938 2.125 -13.609375 C 2.96875 -15.015625 4.128906 -16.109375 5.609375 -16.890625 C 7.085938 -17.679688 8.753906 -18.078125 10.609375 -18.078125 C 12.222656 -18.078125 13.679688 -17.789062 14.984375 -17.21875 C 16.285156 -16.644531 17.363281 -15.816406 18.21875 -14.734375 L 15.03125 -11.84375 C 13.882812 -13.226562 12.492188 -13.921875 10.859375 -13.921875 C 9.898438 -13.921875 9.039062 -13.707031 8.28125 -13.28125 C 7.53125 -12.863281 6.945312 -12.269531 6.53125 -11.5 C 6.125 -10.738281 5.921875 -9.859375 5.921875 -8.859375 C 5.921875 -7.859375 6.125 -6.972656 6.53125 -6.203125 C 6.945312 -5.441406 7.53125 -4.847656 8.28125 -4.421875 C 9.039062 -4.003906 9.898438 -3.796875 10.859375 -3.796875 C 12.492188 -3.796875 13.882812 -4.488281 15.03125 -5.875 L 18.21875 -2.984375 C 17.363281 -1.898438 16.285156 -1.070312 14.984375 -0.5 C 13.679688 0.0703125 12.222656 0.359375 10.609375 0.359375 Z M 10.609375 0.359375 "/></g></g></g><g fill="#ffffff" fill-opacity="1"><g transform="translate(19.386201, 20.061708)"><g><path d="M 9.515625 -4.703125 L 6.78125 -4.703125 L 6.78125 0 L 1.765625 0 L 1.765625 -17.71875 L 9.875 -17.71875 C 11.476562 -17.71875 12.867188 -17.453125 14.046875 -16.921875 C 15.222656 -16.390625 16.132812 -15.628906 16.78125 -14.640625 C 17.425781 -13.648438 17.75 -12.488281 17.75 -11.15625 C 17.75 -9.875 17.445312 -8.753906 16.84375 -7.796875 C 16.25 -6.847656 15.394531 -6.101562 14.28125 -5.5625 L 18.09375 0 L 12.734375 0 Z M 12.6875 -11.15625 C 12.6875 -11.988281 12.421875 -12.628906 11.890625 -13.078125 C 11.367188 -13.535156 10.59375 -13.765625 9.5625 -13.765625 L 6.78125 -13.765625 L 6.78125 -8.578125 L 9.5625 -8.578125 C 10.59375 -8.578125 11.367188 -8.800781 11.890625 -9.25 C 12.421875 -9.695312 12.6875 -10.332031 12.6875 -11.15625 Z M 12.6875 -11.15625 "/></g></g></g><g fill="#ffffff" fill-opacity="1"><g transform="translate(38.117407, 20.061708)"><g><path d="M 11.265625 -6.359375 L 11.265625 0 L 6.25 0 L 6.25 -6.421875 L -0.5 -17.71875 L 4.78125 -17.71875 L 8.984375 -10.6875 L 13.1875 -17.71875 L 18.046875 -17.71875 Z M 11.265625 -6.359375 "/></g></g></g><g fill="#ffffff" fill-opacity="1"><g transform="translate(55.658931, 20.061708)"><g><path d="M 9.875 -17.71875 C 11.476562 -17.71875 12.867188 -17.453125 14.046875 -16.921875 C 15.222656 -16.390625 16.132812 -15.628906 16.78125 -14.640625 C 17.425781 -13.648438 17.75 -12.488281 17.75 -11.15625 C 17.75 -9.820312 17.425781 -8.664062 16.78125 -7.6875 C 16.132812 -6.71875 15.222656 -5.960938 14.046875 -5.421875 C 12.867188 -4.890625 11.476562 -4.625 9.875 -4.625 L 6.78125 -4.625 L 6.78125 0 L 1.765625 0 L 1.765625 -17.71875 Z M 9.5625 -8.578125 C 10.59375 -8.578125 11.367188 -8.800781 11.890625 -9.25 C 12.421875 -9.695312 12.6875 -10.332031 12.6875 -11.15625 C 12.6875 -11.988281 12.421875 -12.628906 11.890625 -13.078125 C 11.367188 -13.535156 10.59375 -13.765625 9.5625 -13.765625 L 6.78125 -13.765625 L 6.78125 -8.578125 Z M 9.5625 -8.578125 "/></g></g></g><g fill="#ffffff" fill-opacity="1"><g transform="translate(74.314195, 20.061708)"><g><path d="M 5.546875 -13.75 L 0.09375 -13.75 L 0.09375 -17.71875 L 15.96875 -17.71875 L 15.96875 -13.75 L 10.5625 -13.75 L 10.5625 0 L 5.546875 0 Z M 5.546875 -13.75 "/></g></g></g><g fill="#ffffff" fill-opacity="1"><g transform="translate(90.387595, 20.061708)"><g><path d="M 10.703125 0.359375 C 8.828125 0.359375 7.144531 -0.0351562 5.65625 -0.828125 C 4.164062 -1.628906 2.992188 -2.726562 2.140625 -4.125 C 1.285156 -5.53125 0.859375 -7.109375 0.859375 -8.859375 C 0.859375 -10.609375 1.285156 -12.179688 2.140625 -13.578125 C 2.992188 -14.984375 4.164062 -16.082031 5.65625 -16.875 C 7.144531 -17.675781 8.828125 -18.078125 10.703125 -18.078125 C 12.578125 -18.078125 14.257812 -17.675781 15.75 -16.875 C 17.25 -16.082031 18.421875 -14.984375 19.265625 -13.578125 C 20.117188 -12.179688 20.546875 -10.609375 20.546875 -8.859375 C 20.546875 -7.109375 20.117188 -5.53125 19.265625 -4.125 C 18.421875 -2.726562 17.25 -1.628906 15.75 -0.828125 C 14.257812 -0.0351562 12.578125 0.359375 10.703125 0.359375 Z M 10.703125 -3.796875 C 11.597656 -3.796875 12.40625 -4.003906 13.125 -4.421875 C 13.851562 -4.847656 14.425781 -5.441406 14.84375 -6.203125 C 15.269531 -6.972656 15.484375 -7.859375 15.484375 -8.859375 C 15.484375 -9.859375 15.269531 -10.738281 14.84375 -11.5 C 14.425781 -12.269531 13.851562 -12.863281 13.125 -13.28125 C 12.40625 -13.707031 11.597656 -13.921875 10.703125 -13.921875 C 9.804688 -13.921875 8.992188 -13.707031 8.265625 -13.28125 C 7.546875 -12.863281 6.972656 -12.269531 6.546875 -11.5 C 6.128906 -10.738281 5.921875 -9.859375 5.921875 -8.859375 C 5.921875 -7.859375 6.128906 -6.972656 6.546875 -6.203125 C 6.972656 -5.441406 7.546875 -4.847656 8.265625 -4.421875 C 8.992188 -4.003906 9.804688 -3.796875 10.703125 -3.796875 Z M 10.703125 -3.796875 "/></g></g></g><g fill="#ffffff" fill-opacity="1"><g transform="translate(12.684259, 29.106354)"><g><path d="M 0.640625 -4.875 L 2.640625 -4.875 C 3.367188 -4.875 3.96875 -4.644531 4.4375 -4.1875 C 4.914062 -3.726562 5.15625 -3.144531 5.15625 -2.4375 C 5.15625 -1.726562 4.914062 -1.144531 4.4375 -0.6875 C 3.96875 -0.226562 3.363281 0 2.625 0 L 0.640625 0 Z M 1.46875 -4.140625 L 1.46875 -0.734375 L 2.65625 -0.734375 C 3.132812 -0.734375 3.53125 -0.890625 3.84375 -1.203125 C 4.164062 -1.523438 4.328125 -1.929688 4.328125 -2.421875 C 4.328125 -2.921875 4.164062 -3.332031 3.84375 -3.65625 C 3.519531 -3.976562 3.113281 -4.140625 2.625 -4.140625 Z M 1.46875 -4.140625 "/></g></g></g><g fill="#ffffff" fill-opacity="1"><g transform="translate(18.440394, 29.106354)"><g><path d="M 1.46875 0 L 0.640625 0 L 0.640625 -4.875 L 1.46875 -4.875 Z M 1.46875 0 "/></g></g></g><g fill="#ffffff" fill-opacity="1"><g transform="translate(20.900338, 29.106354)"><g><path d="M 3.984375 -2.390625 L 4.703125 -2.390625 L 4.703125 -0.59375 C 4.453125 -0.40625 4.15625 -0.253906 3.8125 -0.140625 C 3.46875 -0.0234375 3.128906 0.03125 2.796875 0.03125 C 2.078125 0.03125 1.46875 -0.203125 0.96875 -0.671875 C 0.476562 -1.148438 0.234375 -1.738281 0.234375 -2.4375 C 0.234375 -3.132812 0.484375 -3.71875 0.984375 -4.1875 C 1.484375 -4.664062 2.101562 -4.90625 2.84375 -4.90625 C 3.1875 -4.90625 3.523438 -4.84375 3.859375 -4.71875 C 4.191406 -4.59375 4.476562 -4.425781 4.71875 -4.21875 L 4.265625 -3.609375 C 3.859375 -3.984375 3.382812 -4.171875 2.84375 -4.171875 C 2.351562 -4.171875 1.9375 -4 1.59375 -3.65625 C 1.25 -3.320312 1.078125 -2.914062 1.078125 -2.4375 C 1.078125 -1.945312 1.25 -1.535156 1.59375 -1.203125 C 1.9375 -0.867188 2.359375 -0.703125 2.859375 -0.703125 C 3.234375 -0.703125 3.609375 -0.8125 3.984375 -1.03125 Z M 3.984375 -2.390625 "/></g></g></g><g fill="#ffffff" fill-opacity="1"><g transform="translate(26.47529, 29.106354)"><g><path d="M 1.46875 0 L 0.640625 0 L 0.640625 -4.875 L 1.46875 -4.875 Z M 1.46875 0 "/></g></g></g><g fill="#ffffff" fill-opacity="1"><g transform="translate(28.935234, 29.106354)"><g><path d="M 3.96875 -4.140625 L 2.421875 -4.140625 L 2.421875 0 L 1.609375 0 L 1.609375 -4.140625 L 0.0625 -4.140625 L 0.0625 -4.875 L 3.96875 -4.875 Z M 3.96875 -4.140625 "/></g></g></g><g fill="#ffffff" fill-opacity="1"><g transform="translate(33.325504, 29.106354)"><g><path d="M 3.796875 -1.09375 L 1.328125 -1.09375 L 0.859375 0 L 0 0 L 2.15625 -4.875 L 3 -4.875 L 5.140625 0 L 4.265625 0 Z M 3.484375 -1.828125 L 2.5625 -4 L 1.640625 -1.828125 Z M 3.484375 -1.828125 "/></g></g></g><g fill="#ffffff" fill-opacity="1"><g transform="translate(38.823799, 29.106354)"><g><path d="M 1.46875 -0.75 L 3.578125 -0.75 L 3.578125 0 L 0.640625 0 L 0.640625 -4.875 L 1.46875 -4.875 Z M 1.46875 -0.75 "/></g></g></g><g fill="#ffffff" fill-opacity="1"><g transform="translate(42.900484, 29.106354)"><g/></g></g><g fill="#ffffff" fill-opacity="1"><g transform="translate(45.053808, 29.106354)"><g><path d="M 1.46875 0 L 0.640625 0 L 0.640625 -4.875 L 1.46875 -4.875 Z M 1.46875 0 "/></g></g></g><g fill="#ffffff" fill-opacity="1"><g transform="translate(47.513752, 29.106354)"><g><path d="M 4.875 0 L 4.0625 0 L 1.46875 -3.5 L 1.46875 0 L 0.640625 0 L 0.640625 -4.875 L 1.453125 -4.875 L 4.0625 -1.375 L 4.0625 -4.875 L 4.875 -4.875 Z M 4.875 0 "/></g></g></g><g fill="#ffffff" fill-opacity="1"><g transform="translate(53.38836, 29.106354)"><g><path d="M 3.90625 -4.140625 L 1.46875 -4.140625 L 1.46875 -2.734375 L 3.671875 -2.734375 L 3.671875 -2 L 1.46875 -2 L 1.46875 0 L 0.640625 0 L 0.640625 -4.875 L 3.921875 -4.875 Z M 3.90625 -4.140625 "/></g></g></g><g fill="#ffffff" fill-opacity="1"><g transform="translate(57.750761, 29.106354)"><g><path d="M 0.984375 -4.1875 C 1.484375 -4.664062 2.097656 -4.90625 2.828125 -4.90625 C 3.554688 -4.90625 4.164062 -4.664062 4.65625 -4.1875 C 5.15625 -3.71875 5.40625 -3.132812 5.40625 -2.4375 C 5.40625 -1.738281 5.15625 -1.148438 4.65625 -0.671875 C 4.164062 -0.203125 3.554688 0.03125 2.828125 0.03125 C 2.097656 0.03125 1.484375 -0.203125 0.984375 -0.671875 C 0.484375 -1.148438 0.234375 -1.738281 0.234375 -2.4375 C 0.234375 -3.132812 0.484375 -3.71875 0.984375 -4.1875 Z M 2.828125 -4.15625 C 2.347656 -4.15625 1.9375 -3.988281 1.59375 -3.65625 C 1.25 -3.320312 1.078125 -2.914062 1.078125 -2.4375 C 1.078125 -1.957031 1.25 -1.546875 1.59375 -1.203125 C 1.9375 -0.867188 2.347656 -0.703125 2.828125 -0.703125 C 3.304688 -0.703125 3.710938 -0.867188 4.046875 -1.203125 C 4.390625 -1.546875 4.5625 -1.957031 4.5625 -2.4375 C 4.5625 -2.914062 4.390625 -3.320312 4.046875 -3.65625 C 3.710938 -3.988281 3.304688 -4.15625 2.828125 -4.15625 Z M 2.828125 -4.15625 "/></g></g></g><g fill="#ffffff" fill-opacity="1"><g transform="translate(63.750798, 29.106354)"><g><path d="M 3.734375 0 L 2.84375 -1.484375 C 2.800781 -1.472656 2.726562 -1.46875 2.625 -1.46875 L 1.46875 -1.46875 L 1.46875 0 L 0.640625 0 L 0.640625 -4.875 L 2.625 -4.875 C 3.238281 -4.875 3.71875 -4.726562 4.0625 -4.4375 C 4.40625 -4.144531 4.578125 -3.738281 4.578125 -3.21875 C 4.578125 -2.820312 4.488281 -2.488281 4.3125 -2.21875 C 4.144531 -1.945312 3.898438 -1.75 3.578125 -1.625 L 4.671875 0 Z M 1.46875 -2.203125 L 2.625 -2.203125 C 3.414062 -2.203125 3.8125 -2.53125 3.8125 -3.1875 C 3.8125 -3.820312 3.414062 -4.140625 2.625 -4.140625 L 1.46875 -4.140625 Z M 1.46875 -2.203125 "/></g></g></g><g fill="#ffffff" fill-opacity="1"><g transform="translate(69.144559, 29.106354)"><g><path d="M 5.796875 0 L 5.03125 0 L 5.03125 -3.640625 L 3.484375 -0.515625 L 2.953125 -0.515625 L 1.421875 -3.640625 L 1.421875 0 L 0.640625 0 L 0.640625 -4.875 L 1.609375 -4.875 L 3.21875 -1.640625 L 4.828125 -4.875 L 5.796875 -4.875 Z M 5.796875 0 "/></g></g></g><g fill="#ffffff" fill-opacity="1"><g transform="translate(75.946002, 29.106354)"><g><path d="M 3.796875 -1.09375 L 1.328125 -1.09375 L 0.859375 0 L 0 0 L 2.15625 -4.875 L 3 -4.875 L 5.140625 0 L 4.265625 0 Z M 3.484375 -1.828125 L 2.5625 -4 L 1.640625 -1.828125 Z M 3.484375 -1.828125 "/></g></g></g><g fill="#ffffff" fill-opacity="1"><g transform="translate(81.444297, 29.106354)"><g><path d="M 3.96875 -4.140625 L 2.421875 -4.140625 L 2.421875 0 L 1.609375 0 L 1.609375 -4.140625 L 0.0625 -4.140625 L 0.0625 -4.875 L 3.96875 -4.875 Z M 3.96875 -4.140625 "/></g></g></g><g fill="#ffffff" fill-opacity="1"><g transform="translate(85.834567, 29.106354)"><g><path d="M 1.46875 0 L 0.640625 0 L 0.640625 -4.875 L 1.46875 -4.875 Z M 1.46875 0 "/></g></g></g><g fill="#ffffff" fill-opacity="1"><g transform="translate(88.294511, 29.106354)"><g><path d="M 0.984375 -4.1875 C 1.484375 -4.664062 2.097656 -4.90625 2.828125 -4.90625 C 3.554688 -4.90625 4.164062 -4.664062 4.65625 -4.1875 C 5.15625 -3.71875 5.40625 -3.132812 5.40625 -2.4375 C 5.40625 -1.738281 5.15625 -1.148438 4.65625 -0.671875 C 4.164062 -0.203125 3.554688 0.03125 2.828125 0.03125 C 2.097656 0.03125 1.484375 -0.203125 0.984375 -0.671875 C 0.484375 -1.148438 0.234375 -1.738281 0.234375 -2.4375 C 0.234375 -3.132812 0.484375 -3.71875 0.984375 -4.1875 Z M 2.828125 -4.15625 C 2.347656 -4.15625 1.9375 -3.988281 1.59375 -3.65625 C 1.25 -3.320312 1.078125 -2.914062 1.078125 -2.4375 C 1.078125 -1.957031 1.25 -1.546875 1.59375 -1.203125 C 1.9375 -0.867188 2.347656 -0.703125 2.828125 -0.703125 C 3.304688 -0.703125 3.710938 -0.867188 4.046875 -1.203125 C 4.390625 -1.546875 4.5625 -1.957031 4.5625 -2.4375 C 4.5625 -2.914062 4.390625 -3.320312 4.046875 -3.65625 C 3.710938 -3.988281 3.304688 -4.15625 2.828125 -4.15625 Z M 2.828125 -4.15625 "/></g></g></g><g fill="#ffffff" fill-opacity="1"><g transform="translate(94.294547, 29.106354)"><g><path d="M 4.875 0 L 4.0625 0 L 1.46875 -3.5 L 1.46875 0 L 0.640625 0 L 0.640625 -4.875 L 1.453125 -4.875 L 4.0625 -1.375 L 4.0625 -4.875 L 4.875 -4.875 Z M 4.875 0 "/></g></g></g></svg>