<svg xmlns="http://www.w3.org/2000/svg" xmlns:xlink="http://www.w3.org/1999/xlink" width="302" zoomAndPan="magnify" viewBox="0 0 226.5 67.499998" height="90" preserveAspectRatio="xMidYMid meet" version="1.0"><defs><g/></defs><g fill="rgb(0%, 0%, 0%)" fill-opacity="1"><g transform="translate(0.744669, 39.664841)"><g><path d="M 34.21875 0 L 34.125 -18.09375 L 25.34375 -3.359375 L 21.0625 -3.359375 L 12.328125 -17.59375 L 12.328125 0 L 3.40625 0 L 3.40625 -34.125 L 11.359375 -34.125 L 23.34375 -14.4375 L 35.046875 -34.125 L 43 -34.125 L 43.09375 0 Z M 34.21875 0 "/></g></g></g><g fill="rgb(0%, 0%, 0%)" fill-opacity="1"><g transform="translate(47.245668, 39.664841)"><g><path d="M 26.28125 -6.625 L 11.84375 -6.625 L 9.171875 0 L -0.6875 0 L 14.375 -34.125 L 23.890625 -34.125 L 39 0 L 28.953125 0 Z M 23.453125 -13.75 L 19.0625 -24.671875 L 14.671875 -13.75 Z M 23.453125 -13.75 "/></g></g></g><g fill="rgb(0%, 0%, 0%)" fill-opacity="1"><g transform="translate(85.557809, 39.664841)"><g><path d="M 24.953125 0 L 17.890625 -10.578125 L 10.921875 0 L -0.09375 0 L 12.328125 -17.25 L 0.4375 -34.125 L 11.3125 -34.125 L 18.140625 -24.28125 L 24.859375 -34.125 L 35.296875 -34.125 L 23.40625 -17.640625 L 36.078125 0 Z M 24.953125 0 "/></g></g></g><g fill="rgb(0%, 0%, 0%)" fill-opacity="1"><g transform="translate(121.481533, 39.664841)"><g><path d="M 3.40625 -34.125 L 13.0625 -34.125 L 13.0625 0 L 3.40625 0 Z M 3.40625 -34.125 "/></g></g></g><g fill="rgb(0%, 0%, 0%)" fill-opacity="1"><g transform="translate(138.005478, 39.664841)"><g><path d="M 34.21875 0 L 34.125 -18.09375 L 25.34375 -3.359375 L 21.0625 -3.359375 L 12.328125 -17.59375 L 12.328125 0 L 3.40625 0 L 3.40625 -34.125 L 11.359375 -34.125 L 23.34375 -14.4375 L 35.046875 -34.125 L 43 -34.125 L 43.09375 0 Z M 34.21875 0 "/></g></g></g><g fill="rgb(0%, 0%, 0%)" fill-opacity="1"><g transform="translate(184.506477, 39.664841)"><g><path d="M 20.625 0.6875 C 17.007812 0.6875 13.765625 -0.078125 10.890625 -1.609375 C 8.015625 -3.140625 5.753906 -5.253906 4.109375 -7.953125 C 2.472656 -10.648438 1.65625 -13.6875 1.65625 -17.0625 C 1.65625 -20.4375 2.472656 -23.472656 4.109375 -26.171875 C 5.753906 -28.867188 8.015625 -30.984375 10.890625 -32.515625 C 13.765625 -34.046875 17.007812 -34.8125 20.625 -34.8125 C 24.226562 -34.8125 27.46875 -34.046875 30.34375 -32.515625 C 33.21875 -30.984375 35.472656 -28.867188 37.109375 -26.171875 C 38.753906 -23.472656 39.578125 -20.4375 39.578125 -17.0625 C 39.578125 -13.6875 38.753906 -10.648438 37.109375 -7.953125 C 35.472656 -5.253906 33.21875 -3.140625 30.34375 -1.609375 C 27.46875 -0.078125 24.226562 0.6875 20.625 0.6875 Z M 20.625 -7.3125 C 22.34375 -7.3125 23.898438 -7.71875 25.296875 -8.53125 C 26.691406 -9.34375 27.796875 -10.488281 28.609375 -11.96875 C 29.421875 -13.445312 29.828125 -15.144531 29.828125 -17.0625 C 29.828125 -18.976562 29.421875 -20.675781 28.609375 -22.15625 C 27.796875 -23.632812 26.691406 -24.78125 25.296875 -25.59375 C 23.898438 -26.40625 22.34375 -26.8125 20.625 -26.8125 C 18.894531 -26.8125 17.332031 -26.40625 15.9375 -25.59375 C 14.539062 -24.78125 13.4375 -23.632812 12.625 -22.15625 C 11.8125 -20.675781 11.40625 -18.976562 11.40625 -17.0625 C 11.40625 -15.144531 11.8125 -13.445312 12.625 -11.96875 C 13.4375 -10.488281 14.539062 -9.34375 15.9375 -8.53125 C 17.332031 -7.71875 18.894531 -7.3125 20.625 -7.3125 Z M 20.625 -7.3125 "/></g></g></g><g fill="rgb(0%, 0%, 0%)" fill-opacity="1"><g transform="translate(50.059337, 57.903614)"><g><path d="M 8.359375 0 L 6.984375 0 L 2.515625 -6.015625 L 2.515625 0 L 1.09375 0 L 1.09375 -8.375 L 2.484375 -8.375 L 6.984375 -2.359375 L 6.984375 -8.375 L 8.359375 -8.375 Z M 8.359375 0 "/></g></g></g><g fill="rgb(0%, 0%, 0%)" fill-opacity="1"><g transform="translate(60.152805, 57.903614)"><g><path d="M 6.71875 -7.109375 L 2.515625 -7.109375 L 2.515625 -4.6875 L 6.3125 -4.6875 L 6.3125 -3.4375 L 2.515625 -3.4375 L 2.515625 0 L 1.09375 0 L 1.09375 -8.375 L 6.71875 -8.375 Z M 6.71875 -7.109375 "/></g></g></g><g fill="rgb(0%, 0%, 0%)" fill-opacity="1"><g transform="translate(67.648143, 57.903614)"><g><path d="M 6.828125 -7.109375 L 4.171875 -7.109375 L 4.171875 0 L 2.75 0 L 2.75 -7.109375 L 0.109375 -7.109375 L 0.109375 -8.375 L 6.828125 -8.375 Z M 6.828125 -7.109375 "/></g></g></g><g fill="rgb(0%, 0%, 0%)" fill-opacity="1"><g transform="translate(75.191376, 57.903614)"><g/></g></g><g fill="rgb(0%, 0%, 0%)" fill-opacity="1"><g transform="translate(78.891291, 57.903614)"><g><path d="M 9.953125 0 L 8.65625 0 L 8.640625 -6.265625 L 6 -0.875 L 5.078125 -0.875 L 2.421875 -6.265625 L 2.421875 0 L 1.09375 0 L 1.09375 -8.375 L 2.78125 -8.375 L 5.546875 -2.8125 L 8.296875 -8.375 L 9.953125 -8.375 Z M 9.953125 0 "/></g></g></g><g fill="rgb(0%, 0%, 0%)" fill-opacity="1"><g transform="translate(90.577172, 57.903614)"><g><path d="M 6.515625 -1.890625 L 2.28125 -1.890625 L 1.484375 0 L 0.015625 0 L 3.703125 -8.375 L 5.15625 -8.375 L 8.828125 0 L 7.3125 0 Z M 5.96875 -3.140625 L 4.390625 -6.875 L 2.8125 -3.140625 Z M 5.96875 -3.140625 "/></g></g></g><g fill="rgb(0%, 0%, 0%)" fill-opacity="1"><g transform="translate(100.024109, 57.903614)"><g><path d="M 6.421875 0 L 4.890625 -2.53125 C 4.804688 -2.53125 4.675781 -2.53125 4.5 -2.53125 L 2.515625 -2.53125 L 2.515625 0 L 1.09375 0 L 1.09375 -8.375 L 4.5 -8.375 C 5.570312 -8.375 6.398438 -8.125 6.984375 -7.625 C 7.578125 -7.125 7.875 -6.421875 7.875 -5.515625 C 7.875 -4.847656 7.722656 -4.28125 7.421875 -3.8125 C 7.128906 -3.351562 6.703125 -3.015625 6.140625 -2.796875 L 8.015625 0 Z M 2.515625 -3.796875 L 4.5 -3.796875 C 5.851562 -3.796875 6.53125 -4.359375 6.53125 -5.484375 C 6.53125 -6.566406 5.851562 -7.109375 4.5 -7.109375 L 2.515625 -7.109375 Z M 2.515625 -3.796875 "/></g></g></g><g fill="rgb(0%, 0%, 0%)" fill-opacity="1"><g transform="translate(109.291447, 57.903614)"><g><path d="M 6.6875 0 L 3.9375 -3.703125 L 2.515625 -2.125 L 2.515625 0 L 1.09375 0 L 1.09375 -8.375 L 2.515625 -8.375 L 2.515625 -4.046875 L 6.515625 -8.375 L 8.171875 -8.375 L 4.9375 -4.796875 L 8.390625 0 Z M 6.6875 0 "/></g></g></g><g fill="rgb(0%, 0%, 0%)" fill-opacity="1"><g transform="translate(118.498922, 57.903614)"><g><path d="M 7.078125 -7.109375 L 2.515625 -7.109375 L 2.515625 -4.84375 L 6.609375 -4.84375 L 6.609375 -3.578125 L 2.515625 -3.578125 L 2.515625 -1.265625 L 7.234375 -1.265625 L 7.234375 0 L 1.09375 0 L 1.09375 -8.375 L 7.078125 -8.375 Z M 7.078125 -7.109375 "/></g></g></g><g fill="rgb(0%, 0%, 0%)" fill-opacity="1"><g transform="translate(126.964072, 57.903614)"><g><path d="M 6.828125 -7.109375 L 4.171875 -7.109375 L 4.171875 0 L 2.75 0 L 2.75 -7.109375 L 0.109375 -7.109375 L 0.109375 -8.375 L 6.828125 -8.375 Z M 6.828125 -7.109375 "/></g></g></g><g fill="rgb(0%, 0%, 0%)" fill-opacity="1"><g transform="translate(134.507308, 57.903614)"><g><path d="M 1.09375 -8.375 L 4.4375 -8.375 C 5.488281 -8.375 6.300781 -8.125 6.875 -7.625 C 7.457031 -7.125 7.75 -6.421875 7.75 -5.515625 C 7.75 -4.566406 7.457031 -3.832031 6.875 -3.3125 C 6.300781 -2.789062 5.488281 -2.53125 4.4375 -2.53125 L 2.515625 -2.53125 L 2.515625 0 L 1.09375 0 Z M 2.515625 -7.109375 L 2.515625 -3.796875 L 4.375 -3.796875 C 5.726562 -3.796875 6.40625 -4.359375 6.40625 -5.484375 C 6.40625 -6.566406 5.726562 -7.109375 4.375 -7.109375 Z M 2.515625 -7.109375 "/></g></g></g><g fill="rgb(0%, 0%, 0%)" fill-opacity="1"><g transform="translate(143.175999, 57.903614)"><g><path d="M 2.515625 -1.28125 L 6.140625 -1.28125 L 6.140625 0 L 1.09375 0 L 1.09375 -8.375 L 2.515625 -8.375 Z M 2.515625 -1.28125 "/></g></g></g><g fill="rgb(0%, 0%, 0%)" fill-opacity="1"><g transform="translate(150.180445, 57.903614)"><g><path d="M 6.515625 -1.890625 L 2.28125 -1.890625 L 1.484375 0 L 0.015625 0 L 3.703125 -8.375 L 5.15625 -8.375 L 8.828125 0 L 7.3125 0 Z M 5.96875 -3.140625 L 4.390625 -6.875 L 2.8125 -3.140625 Z M 5.96875 -3.140625 "/></g></g></g><g fill="rgb(0%, 0%, 0%)" fill-opacity="1"><g transform="translate(159.627382, 57.903614)"><g><path d="M 4.8125 -8.421875 C 5.40625 -8.421875 5.984375 -8.304688 6.546875 -8.078125 C 7.109375 -7.847656 7.59375 -7.53125 8 -7.125 L 7.171875 -6.09375 C 6.867188 -6.414062 6.507812 -6.671875 6.09375 -6.859375 C 5.675781 -7.054688 5.253906 -7.15625 4.828125 -7.15625 C 3.992188 -7.15625 3.285156 -6.867188 2.703125 -6.296875 C 2.128906 -5.734375 1.84375 -5.039062 1.84375 -4.21875 C 1.84375 -3.382812 2.128906 -2.679688 2.703125 -2.109375 C 3.285156 -1.535156 3.992188 -1.25 4.828125 -1.25 C 5.703125 -1.25 6.484375 -1.582031 7.171875 -2.25 L 8 -1.3125 C 7.570312 -0.894531 7.070312 -0.5625 6.5 -0.3125 C 5.925781 -0.0625 5.347656 0.0625 4.765625 0.0625 C 3.535156 0.0625 2.5 -0.34375 1.65625 -1.15625 C 0.820312 -1.976562 0.40625 -2.992188 0.40625 -4.203125 C 0.40625 -5.390625 0.828125 -6.390625 1.671875 -7.203125 C 2.523438 -8.015625 3.570312 -8.421875 4.8125 -8.421875 Z M 4.8125 -8.421875 "/></g></g></g><g fill="rgb(0%, 0%, 0%)" fill-opacity="1"><g transform="translate(168.583431, 57.903614)"><g><path d="M 7.078125 -7.109375 L 2.515625 -7.109375 L 2.515625 -4.84375 L 6.609375 -4.84375 L 6.609375 -3.578125 L 2.515625 -3.578125 L 2.515625 -1.265625 L 7.234375 -1.265625 L 7.234375 0 L 1.09375 0 L 1.09375 -8.375 L 7.078125 -8.375 Z M 7.078125 -7.109375 "/></g></g></g></svg>